<svg width="155" height="154" viewBox="0 0 155 154" fill="none" xmlns="http://www.w3.org/2000/svg">
<path d="M48.6526 63.8127V47.2243H38.0176V24.2684H23.3119V47.2243H12.6777V144.453" stroke="#1C212D" stroke-width="0.769171" stroke-linecap="round" stroke-linejoin="round"/>
<path d="M16.1094 139.118V55.2058C16.1232 54.2491 16.5131 53.3363 17.1945 52.6647C17.876 51.993 18.7944 51.6165 19.7512 51.6165C20.708 51.6165 21.6264 51.993 22.3079 52.6647C22.9893 53.3363 23.3791 54.2491 23.393 55.2058V139.118" stroke="#1C212D" stroke-width="0.769171" stroke-linecap="round" stroke-linejoin="round"/>
<path d="M27.0229 90.5149V55.2058C27.0368 54.2491 27.4267 53.3363 28.1081 52.6647C28.7895 51.993 29.7079 51.6165 30.6647 51.6165C31.6216 51.6165 32.54 51.993 33.2215 52.6647C33.9029 53.3363 34.2927 54.2491 34.3065 55.2058V75.5061" stroke="#1C212D" stroke-width="0.769171" stroke-linecap="round" stroke-linejoin="round"/>
<path d="M37.9365 64.2122V55.2059C37.9365 54.2399 38.3203 53.3136 39.0033 52.6305C39.6864 51.9475 40.6128 51.5637 41.5787 51.5637C42.5447 51.5637 43.4711 51.9475 44.1542 52.6305C44.8372 53.3136 45.2209 54.2399 45.2209 55.2059V75.5061" stroke="#1C212D" stroke-width="0.769171" stroke-linecap="round" stroke-linejoin="round"/>
<path d="M37.9365 75.5062V71.1278" stroke="#1C212D" stroke-width="0.769171" stroke-linecap="round" stroke-linejoin="round"/>
<path d="M25.9201 47.297V28.9185C25.9153 28.6961 25.955 28.475 26.0368 28.2682C26.1186 28.0614 26.2409 27.873 26.3965 27.7141C26.552 27.5551 26.7377 27.4288 26.9428 27.3427C27.1478 27.2564 27.368 27.212 27.5904 27.212C27.8128 27.212 28.033 27.2564 28.238 27.3427C28.443 27.4288 28.6288 27.5551 28.7843 27.7141C28.9399 27.873 29.0622 28.0614 29.144 28.2682C29.2258 28.475 29.2654 28.6961 29.2607 28.9185V47.297" stroke="#1C212D" stroke-width="0.769171" stroke-linecap="round" stroke-linejoin="round"/>
<path d="M31.8798 47.297V28.9185C31.875 28.6961 31.9147 28.475 31.9965 28.2682C32.0783 28.0614 32.2006 27.873 32.3561 27.7141C32.5117 27.5551 32.6974 27.4288 32.9025 27.3427C33.1075 27.2564 33.3277 27.212 33.5501 27.212C33.7725 27.212 33.9927 27.2564 34.1977 27.3427C34.4027 27.4288 34.5884 27.5551 34.744 27.7141C34.8996 27.873 35.0219 28.0614 35.1037 28.2682C35.1855 28.475 35.2252 28.6961 35.2204 28.9185V47.297" stroke="#1C212D" stroke-width="0.769171" stroke-linecap="round" stroke-linejoin="round"/>
<path d="M36.0913 24.269H25.239V22.3151C25.239 20.876 25.8107 19.4958 26.8283 18.4782C27.8459 17.4606 29.226 16.8889 30.6652 16.8889C32.1043 16.8889 33.4844 17.4606 34.502 18.4782C35.5196 19.4958 36.0913 20.876 36.0913 22.3151V24.269Z" stroke="#1C212D" stroke-width="0.769171" stroke-linecap="round" stroke-linejoin="round"/>
<path d="M114.889 71.0931V55.3863H145.68V144.613" stroke="#1C212D" stroke-width="0.769171" stroke-linecap="round" stroke-linejoin="round"/>
<path d="M141.044 47.251H119.524V55.3864H141.044V47.251Z" stroke="#1C212D" stroke-width="0.769171" stroke-linecap="round" stroke-linejoin="round"/>
<path d="M138.433 39.1147H122.136V47.2501H138.433V39.1147Z" stroke="#1C212D" stroke-width="0.769171" stroke-linecap="round" stroke-linejoin="round"/>
<path d="M134.809 30.9794H125.759V39.1148H134.809V30.9794Z" stroke="#1C212D" stroke-width="0.769171" stroke-linecap="round" stroke-linejoin="round"/>
<path d="M133.852 26.1043H126.716V30.9794H133.852V26.1043Z" stroke="#1C212D" stroke-width="0.769171" stroke-linecap="round" stroke-linejoin="round"/>
<path d="M130.284 20.7881V26.1041" stroke="#1C212D" stroke-width="0.769171" stroke-linecap="round" stroke-linejoin="round"/>
<path d="M119.524 61.7875H132.752" stroke="#1C212D" stroke-width="0.769171" stroke-linecap="round" stroke-linejoin="round"/>
<path d="M136.299 61.7875H141.044" stroke="#1C212D" stroke-width="0.769171" stroke-linecap="round" stroke-linejoin="round"/>
<path d="M122.559 51.3185H132.463" stroke="#1C212D" stroke-width="0.769171" stroke-linecap="round" stroke-linejoin="round"/>
<path d="M135.118 51.3185H138.672" stroke="#1C212D" stroke-width="0.769171" stroke-linecap="round" stroke-linejoin="round"/>
<path d="M119.524 68.1879H132.752" stroke="#1C212D" stroke-width="0.769171" stroke-linecap="round" stroke-linejoin="round"/>
<path d="M136.299 68.1879H141.044" stroke="#1C212D" stroke-width="0.769171" stroke-linecap="round" stroke-linejoin="round"/>
<path d="M119.524 74.5891H132.752" stroke="#1C212D" stroke-width="0.769171" stroke-linecap="round" stroke-linejoin="round"/>
<path d="M136.299 74.5891H141.044" stroke="#1C212D" stroke-width="0.769171" stroke-linecap="round" stroke-linejoin="round"/>
<path d="M119.524 80.9903H132.752" stroke="#1C212D" stroke-width="0.769171" stroke-linecap="round" stroke-linejoin="round"/>
<path d="M136.299 80.9903H141.044" stroke="#1C212D" stroke-width="0.769171" stroke-linecap="round" stroke-linejoin="round"/>
<path d="M136.299 87.3912H141.044" stroke="#1C212D" stroke-width="0.769171" stroke-linecap="round" stroke-linejoin="round"/>
<path d="M136.299 93.7919H141.044" stroke="#1C212D" stroke-width="0.769171" stroke-linecap="round" stroke-linejoin="round"/>
<path d="M136.299 100.193H141.044" stroke="#1C212D" stroke-width="0.769171" stroke-linecap="round" stroke-linejoin="round"/>
<path d="M136.299 106.594H141.044" stroke="#1C212D" stroke-width="0.769171" stroke-linecap="round" stroke-linejoin="round"/>
<path d="M136.299 112.995H141.044" stroke="#1C212D" stroke-width="0.769171" stroke-linecap="round" stroke-linejoin="round"/>
<path d="M136.299 119.396H141.044" stroke="#1C212D" stroke-width="0.769171" stroke-linecap="round" stroke-linejoin="round"/>
<path d="M136.299 125.797H141.044" stroke="#1C212D" stroke-width="0.769171" stroke-linecap="round" stroke-linejoin="round"/>
<path d="M136.299 132.197H141.044" stroke="#1C212D" stroke-width="0.769171" stroke-linecap="round" stroke-linejoin="round"/>
<path d="M136.299 138.598H141.044" stroke="#1C212D" stroke-width="0.769171" stroke-linecap="round" stroke-linejoin="round"/>
<path d="M125.759 42.2166V44.8654" stroke="#1C212D" stroke-width="0.769171" stroke-linecap="round" stroke-linejoin="round"/>
<path d="M130.284 42.2166V44.8654" stroke="#1C212D" stroke-width="0.769171" stroke-linecap="round" stroke-linejoin="round"/>
<path d="M134.809 42.2166V44.8654" stroke="#1C212D" stroke-width="0.769171" stroke-linecap="round" stroke-linejoin="round"/>
<path d="M128.712 33.723V36.3718" stroke="#1C212D" stroke-width="0.769171" stroke-linecap="round" stroke-linejoin="round"/>
<path d="M131.857 33.723V36.3718" stroke="#1C212D" stroke-width="0.769171" stroke-linecap="round" stroke-linejoin="round"/>
<path d="M74.4844 28.5419H71.2402" stroke="#1C212D" stroke-width="0.769171" stroke-linecap="round" stroke-linejoin="round"/>
<path d="M72.8628 30.1639V26.9196" stroke="#1C212D" stroke-width="0.769171" stroke-linecap="round" stroke-linejoin="round"/>
<path d="M59.001 19.6389H55.7568" stroke="#1C212D" stroke-width="0.769171" stroke-linecap="round" stroke-linejoin="round"/>
<path d="M57.3787 21.2608V18.0166" stroke="#1C212D" stroke-width="0.769171" stroke-linecap="round" stroke-linejoin="round"/>
<path d="M123.758 10.3594H120.513" stroke="#1C212D" stroke-width="0.769171" stroke-linecap="round" stroke-linejoin="round"/>
<path d="M122.136 11.9811V8.73691" stroke="#1C212D" stroke-width="0.769171" stroke-linecap="round" stroke-linejoin="round"/>
<path d="M149.874 39.712H146.63" stroke="#1C212D" stroke-width="0.769171" stroke-linecap="round" stroke-linejoin="round"/>
<path d="M148.252 41.3336V38.0894" stroke="#1C212D" stroke-width="0.769171" stroke-linecap="round" stroke-linejoin="round"/>
<path d="M7.70686 35.5399H4.46265" stroke="#1C212D" stroke-width="0.769171" stroke-linecap="round" stroke-linejoin="round"/>
<path d="M6.08521 37.1618V33.9176" stroke="#1C212D" stroke-width="0.769171" stroke-linecap="round" stroke-linejoin="round"/>
<path d="M109.217 67.4641V145.114H133.718V83.1425L109.217 67.4641ZM128.438 139.279H113.945V132.216H128.438V139.279ZM128.438 127.011H113.945V119.948H128.438V127.011ZM128.438 114.742H113.945V107.679H128.438V114.742ZM128.438 102.474H113.945V95.4107H128.438V102.474ZM128.438 90.2057H113.945V83.1425H128.438V90.2057Z" fill="#FFEE31"/>
<path d="M133.718 145.11V83.1425L109.217 67.4641V145.11" stroke="#1C212D" stroke-width="0.769171" stroke-linecap="round" stroke-linejoin="round"/>
<path d="M109.217 145.11V67.4641L102.761 63.3328V145.11" stroke="#1C212D" stroke-width="0.769171" stroke-linecap="round" stroke-linejoin="round"/>
<path d="M128.439 83.1427H113.945V90.2059H128.439V83.1427Z" stroke="#1C212D" stroke-width="0.769171" stroke-linecap="round" stroke-linejoin="round"/>
<path d="M128.439 95.4107H113.945V102.474H128.439V95.4107Z" stroke="#1C212D" stroke-width="0.769171" stroke-linecap="round" stroke-linejoin="round"/>
<path d="M128.439 107.679H113.945V114.742H128.439V107.679Z" stroke="#1C212D" stroke-width="0.769171" stroke-linecap="round" stroke-linejoin="round"/>
<path d="M128.439 119.948H113.945V127.011H128.439V119.948Z" stroke="#1C212D" stroke-width="0.769171" stroke-linecap="round" stroke-linejoin="round"/>
<path d="M128.439 132.216H113.945V139.279H128.439V132.216Z" stroke="#1C212D" stroke-width="0.769171" stroke-linecap="round" stroke-linejoin="round"/>
<path d="M102.761 141.689H109.217" stroke="#1C212D" stroke-width="0.769171" stroke-linecap="round" stroke-linejoin="round"/>
<path d="M102.761 137.067H109.217" stroke="#1C212D" stroke-width="0.769171" stroke-linecap="round" stroke-linejoin="round"/>
<path d="M102.761 132.446H109.217" stroke="#1C212D" stroke-width="0.769171" stroke-linecap="round" stroke-linejoin="round"/>
<path d="M102.761 127.825H109.217" stroke="#1C212D" stroke-width="0.769171" stroke-linecap="round" stroke-linejoin="round"/>
<path d="M102.761 123.203H109.217" stroke="#1C212D" stroke-width="0.769171" stroke-linecap="round" stroke-linejoin="round"/>
<path d="M102.761 118.583H109.217" stroke="#1C212D" stroke-width="0.769171" stroke-linecap="round" stroke-linejoin="round"/>
<path d="M102.761 113.961H109.217" stroke="#1C212D" stroke-width="0.769171" stroke-linecap="round" stroke-linejoin="round"/>
<path d="M102.761 109.34H109.217" stroke="#1C212D" stroke-width="0.769171" stroke-linecap="round" stroke-linejoin="round"/>
<path d="M102.761 104.718H109.217" stroke="#1C212D" stroke-width="0.769171" stroke-linecap="round" stroke-linejoin="round"/>
<path d="M102.761 100.097H109.217" stroke="#1C212D" stroke-width="0.769171" stroke-linecap="round" stroke-linejoin="round"/>
<path d="M102.761 95.4749H109.217" stroke="#1C212D" stroke-width="0.769171" stroke-linecap="round" stroke-linejoin="round"/>
<path d="M102.761 90.8538H109.217" stroke="#1C212D" stroke-width="0.769171" stroke-linecap="round" stroke-linejoin="round"/>
<path d="M102.761 86.232H109.217" stroke="#1C212D" stroke-width="0.769171" stroke-linecap="round" stroke-linejoin="round"/>
<path d="M102.761 81.6111H109.217" stroke="#1C212D" stroke-width="0.769171" stroke-linecap="round" stroke-linejoin="round"/>
<path d="M102.761 76.99H109.217" stroke="#1C212D" stroke-width="0.769171" stroke-linecap="round" stroke-linejoin="round"/>
<path d="M102.761 72.3684H109.217" stroke="#1C212D" stroke-width="0.769171" stroke-linecap="round" stroke-linejoin="round"/>
<path d="M102.761 67.7473H109.217" stroke="#1C212D" stroke-width="0.769171" stroke-linecap="round" stroke-linejoin="round"/>
<path d="M67.8889 51.9135V88.6828L83.4503 51.9135H67.8889Z" stroke="#1C212D" stroke-width="0.769171" stroke-linecap="round" stroke-linejoin="round"/>
<path d="M99.0108 51.9135H83.4502L99.0108 88.6828V51.9135Z" stroke="#1C212D" stroke-width="0.769171" stroke-linecap="round" stroke-linejoin="round"/>
<path d="M88.3767 63.5531H78.5246L73.3289 75.8289H93.5717L88.3767 63.5531Z" fill="#1C212D"/>
<path d="M99.0109 88.6827L93.8954 76.5944H73.0051L67.8889 88.6827L67.8897 89.5582H99.0109V88.6827Z" fill="#1C212D"/>
<path d="M99.0109 104.87H71.1125V118.651H99.0109V104.87Z" fill="#1C212D"/>
<path d="M88.0522 62.788L83.4503 51.9135L78.8484 62.788H88.0522Z" fill="#1C212D"/>
<path d="M99.0109 133.964H71.1125V144.948H99.0109V133.964Z" fill="#1C212D"/>
<path d="M99.0109 119.417H71.1125V133.198H99.0109V119.417Z" fill="#1C212D"/>
<path d="M71.1125 90.5151V104.105H99.0109V90.3237H67.8897L67.8889 90.5151H71.1125Z" fill="#1C212D"/>
<path d="M71.1125 144.948H99.0109V88.6828L83.4503 51.9135L67.8889 88.6828V90.515" stroke="#1C212D" stroke-width="0.769171" stroke-linecap="round" stroke-linejoin="round"/>
<path d="M92.5637 73.2071L99.0108 78.5039" stroke="#1C212D" stroke-width="0.769171" stroke-linecap="round" stroke-linejoin="round"/>
<path d="M89.0647 65.178L99.0109 73.3494" stroke="#1C212D" stroke-width="0.769171" stroke-linecap="round" stroke-linejoin="round"/>
<path d="M85.822 57.361L99.0109 68.1957" stroke="#1C212D" stroke-width="0.769171" stroke-linecap="round" stroke-linejoin="round"/>
<path d="M85.4624 51.9111L99.011 63.042" stroke="#1C212D" stroke-width="0.769171" stroke-linecap="round" stroke-linejoin="round"/>
<path d="M74.336 73.2071L67.8889 78.5039" stroke="#1C212D" stroke-width="0.769171" stroke-linecap="round" stroke-linejoin="round"/>
<path d="M77.8358 65.178L67.8889 73.3494" stroke="#1C212D" stroke-width="0.769171" stroke-linecap="round" stroke-linejoin="round"/>
<path d="M81.0778 57.361L67.8889 68.1957" stroke="#1C212D" stroke-width="0.769171" stroke-linecap="round" stroke-linejoin="round"/>
<path d="M81.4375 51.9111L67.8889 63.042" stroke="#1C212D" stroke-width="0.769171" stroke-linecap="round" stroke-linejoin="round"/>
<path d="M94.4113 47.7201H72.4885V51.914H94.4113V47.7201Z" fill="#FFEE31"/>
<path d="M94.4113 47.7201H72.4885V51.914H94.4113V47.7201Z" stroke="#1C212D" stroke-width="0.769171" stroke-linecap="round" stroke-linejoin="round"/>
<path d="M87.0451 47.7203H79.5571V41.2739C79.5571 40.281 79.9513 39.3287 80.6538 38.6265C81.3556 37.9244 82.3085 37.53 83.3011 37.53C84.2937 37.53 85.2466 37.9244 85.9484 38.6265C86.6509 39.3287 87.0451 40.281 87.0451 41.2739V47.7203Z" fill="#FFEE31"/>
<path d="M87.0451 47.7203H79.5571V41.2739C79.5571 40.281 79.9513 39.3287 80.6538 38.6265C81.3556 37.9244 82.3085 37.53 83.3011 37.53C84.2937 37.53 85.2466 37.9244 85.9484 38.6265C86.6509 39.3287 87.0451 40.281 87.0451 41.2739V47.7203Z" stroke="#1C212D" stroke-width="0.769171" stroke-linecap="round" stroke-linejoin="round"/>
<path d="M83.301 30.3564V37.5298" stroke="#1C212D" stroke-width="0.769171" stroke-linecap="round" stroke-linejoin="round"/>
<path d="M25.9202 145.114H40.9841V90.515H25.9202V145.114ZM28.0447 95.4574H38.4179V100.891H28.0447V95.4574ZM28.0447 106.601H38.4179V112.034H28.0447V106.601ZM28.0447 117.743H38.4179V123.177H28.0447V117.743ZM28.0447 128.886H38.4179V134.32H28.0447V128.886Z" fill="#FFEE31"/>
<path d="M25.9202 145.11V90.515H40.9841V145.11" stroke="#1C212D" stroke-width="0.769171" stroke-linecap="round" stroke-linejoin="round"/>
<path d="M40.9841 145.114H56.0457V90.515H40.9841V145.114ZM43.3291 95.4574H53.7031V100.891H43.3291V95.4574ZM43.3291 106.601H53.7031V112.034H43.3291V106.601ZM43.3291 117.743H53.7031V123.177H43.3291V117.743ZM43.3291 128.886H53.7031V134.32H43.3291V128.886Z" fill="#FFEE31"/>
<path d="M40.9841 145.11V90.515H56.0488V145.11" stroke="#1C212D" stroke-width="0.769171" stroke-linecap="round" stroke-linejoin="round"/>
<path d="M56.0457 90.515V145.114H71.1126V90.515H56.0457ZM69.0929 134.318H58.7243V128.884H69.096L69.0929 134.318ZM69.0929 123.174H58.7243V117.741H69.096L69.0929 123.174ZM69.0929 112.032H58.7243V106.598H69.096L69.0929 112.032ZM69.0929 100.889H58.7243V95.4551H69.096L69.0929 100.889Z" fill="#FFEE31"/>
<path d="M56.0486 145.11V90.515H71.1125V145.11" stroke="#1C212D" stroke-width="0.769171" stroke-linecap="round" stroke-linejoin="round"/>
<path d="M64.8369 75.5061H32.1958V90.5149H64.8369V75.5061Z" stroke="#1C212D" stroke-width="0.769171" stroke-linecap="round" stroke-linejoin="round"/>
<path d="M38.4187 95.4538H28.0447V100.889H38.4187V95.4538Z" stroke="#1C212D" stroke-width="0.769171" stroke-linecap="round" stroke-linejoin="round"/>
<path d="M38.4187 106.597H28.0447V112.032H38.4187V106.597Z" stroke="#1C212D" stroke-width="0.769171" stroke-linecap="round" stroke-linejoin="round"/>
<path d="M38.4187 117.739H28.0447V123.174H38.4187V117.739Z" stroke="#1C212D" stroke-width="0.769171" stroke-linecap="round" stroke-linejoin="round"/>
<path d="M38.4187 128.882H28.0447V134.317H38.4187V128.882Z" stroke="#1C212D" stroke-width="0.769171" stroke-linecap="round" stroke-linejoin="round"/>
<path d="M53.7031 95.4538H43.3291V100.889H53.7031V95.4538Z" stroke="#1C212D" stroke-width="0.769171" stroke-linecap="round" stroke-linejoin="round"/>
<path d="M53.7031 106.597H43.3291V112.032H53.7031V106.597Z" stroke="#1C212D" stroke-width="0.769171" stroke-linecap="round" stroke-linejoin="round"/>
<path d="M53.7031 117.739H43.3291V123.174H53.7031V117.739Z" stroke="#1C212D" stroke-width="0.769171" stroke-linecap="round" stroke-linejoin="round"/>
<path d="M53.7031 128.882H43.3291V134.317H53.7031V128.882Z" stroke="#1C212D" stroke-width="0.769171" stroke-linecap="round" stroke-linejoin="round"/>
<path d="M69.0959 95.4538H58.7219V100.889H69.0959V95.4538Z" stroke="#1C212D" stroke-width="0.769171" stroke-linecap="round" stroke-linejoin="round"/>
<path d="M69.0959 106.597H58.7219V112.032H69.0959V106.597Z" stroke="#1C212D" stroke-width="0.769171" stroke-linecap="round" stroke-linejoin="round"/>
<path d="M69.0959 117.739H58.7219V123.174H69.0959V117.739Z" stroke="#1C212D" stroke-width="0.769171" stroke-linecap="round" stroke-linejoin="round"/>
<path d="M69.0959 128.882H58.7219V134.317H69.0959V128.882Z" stroke="#1C212D" stroke-width="0.769171" stroke-linecap="round" stroke-linejoin="round"/>
<path d="M46.1713 79.9252H35.7974V85.3605H46.1713V79.9252Z" stroke="#1C212D" stroke-width="0.769171" stroke-linecap="round" stroke-linejoin="round"/>
<path d="M61.2353 79.9252H50.8613V85.3605H61.2353V79.9252Z" stroke="#1C212D" stroke-width="0.769171" stroke-linecap="round" stroke-linejoin="round"/>
<path d="M58.3713 71.5325V75.5061" stroke="#1C212D" stroke-width="0.769171" stroke-linecap="round" stroke-linejoin="round"/>
<path d="M48.8569 71.5325V75.5061" stroke="#1C212D" stroke-width="0.769171" stroke-linecap="round" stroke-linejoin="round"/>
<path d="M39.6602 71.5325V75.5061" stroke="#1C212D" stroke-width="0.769171" stroke-linecap="round" stroke-linejoin="round"/>
<path d="M39.6599 63.8071C38.6623 63.8074 37.7034 64.1937 36.9841 64.8852C36.265 65.5767 35.8412 66.5195 35.8016 67.5165C35.7621 68.5134 36.1097 69.4869 36.7719 70.2332C37.4341 70.9796 38.3593 71.4407 39.3538 71.52V70.2955L37.4481 68.0914C37.395 68.03 37.3684 67.9499 37.3742 67.869C37.38 67.7879 37.4178 67.7125 37.4791 67.6593C37.5406 67.6062 37.6206 67.5795 37.7016 67.5853C37.7826 67.5912 37.858 67.629 37.9112 67.6903L39.3576 69.3603V67.8924C39.3576 67.8112 39.3899 67.7334 39.4473 67.676C39.5047 67.6185 39.5826 67.5863 39.6638 67.5863C39.745 67.5863 39.8229 67.6185 39.8803 67.676C39.9377 67.7334 39.9699 67.8112 39.9699 67.8924V71.52C40.9644 71.4407 41.8897 70.9796 42.5519 70.2332C43.214 69.4869 43.5617 68.5134 43.5221 67.5165C43.4826 66.5195 43.0588 65.5767 42.3396 64.8852C41.6204 64.1937 40.6615 63.8074 39.6638 63.8071H39.6599Z" fill="#1C212D"/>
<path d="M43.5226 67.6697C43.5226 68.4336 43.296 69.1804 42.8716 69.8156C42.4472 70.4508 41.8439 70.9459 41.1381 71.2382C40.4323 71.5306 39.6557 71.6071 38.9064 71.458C38.1572 71.309 37.4689 70.9411 36.9287 70.401C36.3885 69.8607 36.0206 69.1725 35.8716 68.4232C35.7225 67.674 35.7991 66.8973 36.0914 66.1915C36.3838 65.4857 36.8788 64.8824 37.514 64.4581C38.1492 64.0336 38.896 63.8071 39.66 63.8071C40.6844 63.8071 41.6669 64.214 42.3913 64.9384C43.1156 65.6628 43.5226 66.6452 43.5226 67.6697Z" stroke="#1C212D" stroke-width="0.769171" stroke-linecap="round" stroke-linejoin="round"/>
<path d="M48.857 63.8071C47.8594 63.8074 46.9005 64.1937 46.1812 64.8852C45.462 65.5767 45.0382 66.5195 44.9986 67.5165C44.9591 68.5134 45.3068 69.4869 45.969 70.2332C46.6312 70.9796 47.5564 71.4407 48.5509 71.52V67.8924C48.5509 67.8112 48.5831 67.7334 48.6406 67.676C48.698 67.6185 48.7758 67.5863 48.857 67.5863C48.9382 67.5863 49.0161 67.6185 49.0735 67.676C49.1309 67.7334 49.1632 67.8112 49.1632 67.8924V71.52C50.1577 71.4407 51.0829 70.9796 51.7451 70.2332C52.4072 69.4869 52.755 68.5134 52.7154 67.5165C52.6759 66.5195 52.2521 65.5767 51.5328 64.8852C50.8136 64.1937 49.8547 63.8074 48.857 63.8071Z" fill="#1C212D"/>
<path d="M52.7196 67.6697C52.7196 68.4336 52.4931 69.1804 52.0686 69.8156C51.6442 70.4508 51.041 70.9459 50.3352 71.2382C49.6293 71.5306 48.8527 71.6071 48.1034 71.458C47.3542 71.309 46.6659 70.9411 46.1257 70.401C45.5856 69.8607 45.2177 69.1725 45.0686 68.4232C44.9196 67.674 44.996 66.8973 45.2884 66.1915C45.5807 65.4857 46.0758 64.8824 46.7111 64.4581C47.3463 64.0336 48.0931 63.8071 48.857 63.8071C49.8814 63.8071 50.8639 64.214 51.5882 64.9384C52.3126 65.6628 52.7196 66.6452 52.7196 67.6697Z" stroke="#1C212D" stroke-width="0.769171" stroke-linecap="round" stroke-linejoin="round"/>
<path d="M61.2445 65.0955C61.5765 64.5794 61.7633 63.9835 61.7853 63.3703C61.8074 62.757 61.6639 62.1492 61.3699 61.6107C61.0759 61.072 60.6423 60.6225 60.1147 60.3094C59.587 59.9963 58.9847 59.831 58.3711 59.831C57.7575 59.831 57.1553 59.9963 56.6276 60.3094C56.0999 60.6225 55.6663 61.072 55.3723 61.6107C55.0783 62.1492 54.9348 62.757 54.9569 63.3703C54.979 63.9835 55.1658 64.5794 55.4977 65.0955C55.0184 65.6318 54.6982 66.2913 54.5732 66.9996C54.4482 67.708 54.5234 68.4372 54.7902 69.1052C55.057 69.7732 55.5048 70.3535 56.0835 70.7808C56.6621 71.2082 57.3484 71.4657 58.0654 71.5242V70.2997L56.1521 68.0963C56.1074 68.0345 56.0874 67.9582 56.096 67.8823C56.1047 67.8065 56.1414 67.7366 56.1988 67.6865C56.2563 67.6363 56.3305 67.6093 56.4068 67.6109C56.4831 67.6126 56.5559 67.6427 56.6113 67.6953L58.0585 69.3652V63.8074C58.0585 63.7262 58.0907 63.6484 58.1481 63.591C58.2055 63.5335 58.2834 63.5013 58.3646 63.5013C58.4458 63.5013 58.5237 63.5335 58.5811 63.591C58.6385 63.6484 58.6708 63.7262 58.6708 63.8074V71.5211C59.3876 71.4632 60.0741 71.2064 60.653 70.7796C61.2319 70.3529 61.6802 69.7731 61.9477 69.1054C62.2151 68.4378 62.291 67.7088 62.1668 67.0004C62.0425 66.292 61.7232 65.6323 61.2445 65.0955Z" fill="#1C212D"/>
<path d="M61.2444 65.0955C61.5763 64.5794 61.7631 63.9835 61.7852 63.3703C61.8073 62.757 61.6638 62.1492 61.3698 61.6107C61.0758 61.072 60.6423 60.6225 60.1146 60.3094C59.5869 59.9963 58.9846 59.831 58.371 59.831C57.7574 59.831 57.1551 59.9963 56.6274 60.3094C56.0997 60.6225 55.6662 61.072 55.3722 61.6107C55.0783 62.1492 54.9348 62.757 54.9568 63.3703C54.9788 63.9835 55.1657 64.5794 55.4976 65.0955C54.9999 65.6505 54.6736 66.3378 54.5581 67.0742C54.4426 67.8107 54.5428 68.5649 54.8468 69.2456C55.1507 69.9263 55.6451 70.5044 56.2706 70.9101C56.896 71.3158 57.6255 71.5317 58.371 71.5317C59.1165 71.5317 59.846 71.3158 60.4714 70.9101C61.0969 70.5044 61.5914 69.9263 61.8952 69.2456C62.1992 68.5649 62.2994 67.8107 62.1839 67.0742C62.0684 66.3378 61.7421 65.6505 61.2444 65.0955Z" stroke="#1C212D" stroke-width="0.769171" stroke-linecap="round" stroke-linejoin="round"/>
<path d="M41.8916 45.1318V47.2242" stroke="#1C212D" stroke-width="0.769171" stroke-linecap="round" stroke-linejoin="round"/>
<path d="M44.8586 44.8296V47.2243" stroke="#1C212D" stroke-width="0.769171" stroke-linecap="round" stroke-linejoin="round"/>
<path d="M18.0288 44.8892V47.2242" stroke="#1C212D" stroke-width="0.769171" stroke-linecap="round" stroke-linejoin="round"/>
<path d="M18.0287 40.8367C17.5183 40.8375 17.027 41.0308 16.653 41.378C16.2789 41.7253 16.0496 42.2008 16.011 42.7098C15.9723 43.2187 16.1271 43.7235 16.4444 44.1233C16.7617 44.523 17.2182 44.7883 17.7225 44.8662V42.9789C17.7225 42.8977 17.7548 42.8198 17.8122 42.7624C17.8696 42.705 17.9475 42.6727 18.0287 42.6727C18.1099 42.6727 18.1878 42.705 18.2452 42.7624C18.3026 42.8198 18.3348 42.8977 18.3348 42.9789V44.8662C18.8392 44.7883 19.2956 44.523 19.613 44.1233C19.9303 43.7235 20.0851 43.2187 20.0464 42.7098C20.0077 42.2008 19.7785 41.7253 19.4044 41.378C19.0304 41.0308 18.539 40.8375 18.0287 40.8367Z" fill="#1C212D"/>
<path d="M20.0546 42.8665C20.0544 43.2671 19.9355 43.6587 19.7128 43.9917C19.4901 44.3248 19.1736 44.5843 18.8034 44.7375C18.4333 44.8908 18.026 44.9308 17.6331 44.8525C17.2402 44.7743 16.8792 44.5813 16.596 44.2979C16.3127 44.0145 16.1199 43.6536 16.0418 43.2606C15.9637 42.8677 16.0039 42.4604 16.1572 42.0903C16.3105 41.7202 16.5702 41.4038 16.9033 41.1812C17.2365 40.9587 17.6281 40.8399 18.0288 40.8399C18.5661 40.8401 19.0814 41.0537 19.4613 41.4337C19.8411 41.8138 20.0546 42.3291 20.0546 42.8665Z" stroke="#1C212D" stroke-width="0.769171" stroke-linecap="round" stroke-linejoin="round"/>
<path d="M43.2232 42.1502C43.3769 41.9112 43.4634 41.6351 43.4736 41.351C43.4838 41.067 43.4173 40.7854 43.2811 40.5359C43.1449 40.2864 42.9441 40.0783 42.6996 39.9332C42.4552 39.7881 42.1762 39.7116 41.892 39.7116C41.6077 39.7116 41.3287 39.7881 41.0842 39.9332C40.8398 40.0783 40.639 40.2864 40.5027 40.5359C40.3666 40.7854 40.3001 41.067 40.3103 41.351C40.3204 41.6351 40.4069 41.9112 40.5607 42.1502C40.3485 42.3884 40.2037 42.6788 40.1412 42.9916C40.0787 43.3044 40.1008 43.6282 40.2053 43.9295C40.3097 44.2309 40.4926 44.499 40.7352 44.706C40.9779 44.9131 41.2714 45.0517 41.5854 45.1075V43.1566C41.5854 43.0754 41.6177 42.9976 41.6751 42.9402C41.7325 42.8827 41.8104 42.8505 41.8916 42.8505C41.9727 42.8505 42.0506 42.8827 42.108 42.9402C42.1654 42.9976 42.1977 43.0754 42.1977 43.1566V45.1075C42.5118 45.0518 42.8054 44.9133 43.0481 44.7063C43.2907 44.4993 43.4738 44.2312 43.5784 43.9299C43.6829 43.6285 43.7051 43.3046 43.6426 42.9918C43.5802 42.6789 43.4354 42.3884 43.2232 42.1502Z" fill="#1C212D"/>
<path d="M43.2233 42.1502C43.377 41.9112 43.4635 41.6351 43.4737 41.351C43.4839 41.067 43.4174 40.7854 43.2812 40.5359C43.145 40.2864 42.9442 40.0783 42.6997 39.9332C42.4553 39.7881 42.1762 39.7116 41.892 39.7116C41.6078 39.7116 41.3288 39.7881 41.0844 39.9332C40.8399 40.0783 40.6391 40.2864 40.5029 40.5359C40.3666 40.7854 40.3002 41.067 40.3104 41.351C40.3206 41.6351 40.407 41.9112 40.5607 42.1502C40.3303 42.4074 40.1792 42.7257 40.1258 43.0668C40.0724 43.408 40.1188 43.7573 40.2596 44.0725C40.4004 44.3878 40.6294 44.6555 40.9192 44.8434C41.2089 45.0313 41.5468 45.1313 41.892 45.1313C42.2373 45.1313 42.5752 45.0313 42.8649 44.8434C43.1546 44.6555 43.3836 44.3878 43.5244 44.0725C43.6653 43.7573 43.7117 43.408 43.6583 43.0668C43.6049 42.7257 43.4538 42.4074 43.2233 42.1502Z" stroke="#1C212D" stroke-width="0.769171" stroke-linecap="round" stroke-linejoin="round"/>
<path d="M46.4092 41.3579C46.5882 41.0795 46.689 40.7581 46.7008 40.4273C46.7127 40.0966 46.6352 39.7687 46.4767 39.4782C46.3181 39.1878 46.0841 38.9453 45.7995 38.7764C45.5149 38.6075 45.1901 38.5184 44.8591 38.5184C44.5281 38.5184 44.2033 38.6075 43.9186 38.7764C43.634 38.9453 43.4001 39.1878 43.2416 39.4782C43.0829 39.7687 43.0055 40.0966 43.0174 40.4273C43.0292 40.7581 43.1299 41.0795 43.3089 41.3579C43.0591 41.6384 42.8897 41.981 42.8184 42.3498C42.7471 42.7186 42.7768 43.0997 42.9042 43.453C43.0315 43.8063 43.2519 44.1187 43.542 44.3572C43.8322 44.5957 44.1813 44.7514 44.5526 44.808V42.5296C44.5526 42.4484 44.5848 42.3706 44.6422 42.3132C44.6996 42.2557 44.7775 42.2235 44.8587 42.2235C44.9399 42.2235 45.0177 42.2557 45.0752 42.3132C45.1326 42.3706 45.1648 42.4484 45.1648 42.5296V44.808C45.5363 44.7518 45.8857 44.5962 46.1761 44.3578C46.4665 44.1194 46.687 43.807 46.8145 43.4536C46.942 43.1002 46.9717 42.7188 46.9003 42.3499C46.829 41.9811 46.6593 41.6383 46.4092 41.3579Z" fill="#1C212D"/>
<path d="M46.4092 41.3579C46.5881 41.0795 46.6889 40.7581 46.7007 40.4273C46.7126 40.0966 46.6352 39.7687 46.4766 39.4782C46.318 39.1878 46.0841 38.9453 45.7995 38.7764C45.5148 38.6075 45.19 38.5184 44.859 38.5184C44.528 38.5184 44.2032 38.6075 43.9186 38.7764C43.634 38.9453 43.4 39.1878 43.2415 39.4782C43.0829 39.7687 43.0054 40.0966 43.0173 40.4273C43.0291 40.7581 43.1299 41.0795 43.3089 41.3579C43.0406 41.6573 42.8646 42.028 42.8024 42.4252C42.7402 42.8224 42.7943 43.2291 42.9583 43.5962C43.1222 43.9632 43.3889 44.275 43.7263 44.4938C44.0636 44.7126 44.457 44.829 44.859 44.829C45.2611 44.829 45.6545 44.7126 45.9918 44.4938C46.3291 44.275 46.5958 43.9632 46.7598 43.5962C46.9237 43.2291 46.9778 42.8224 46.9156 42.4252C46.8534 42.028 46.6775 41.6573 46.4092 41.3579Z" stroke="#1C212D" stroke-width="0.769171" stroke-linecap="round" stroke-linejoin="round"/>
<path d="M55.6738 57.4763V35.5397H70.7569V49.8161" stroke="#FFEE31" stroke-width="0.769171" stroke-linecap="round" stroke-linejoin="round"/>
<path d="M119.524 45.8403V32.2313H114.723V23.4959H111.412V16.8008H103.135V23.4959H99.8246V32.2313H95.0237V46.5077" stroke="#FFEE31" stroke-width="0.769171" stroke-linecap="round" stroke-linejoin="round"/>
</svg>
